<?xml version="1.0" encoding="UTF-8"?>
<svg width="512" height="512" viewBox="0 0 512 512" fill="none" xmlns="http://www.w3.org/2000/svg">
  <defs>
    <linearGradient id="g" x1="0" y1="0" x2="1" y2="1">
      <stop offset="0%" stop-color="#f59e0b"/>
      <stop offset="100%" stop-color="#b45309"/>
    </linearGradient>
    <filter id="s" x="-20%" y="-20%" width="140%" height="140%">
      <feDropShadow dx="0" dy="8" stdDeviation="12" flood-color="#000" flood-opacity="0.2"/>
    </filter>
  </defs>
  <rect width="512" height="512" rx="64" fill="url(#g)"/>
  <g filter="url(#s)">
    <path d="M256 112c-8.4 0-16 4.9-19.6 12.6L128.5 348.9c-6.2 13 3.4 28.1 17.7 28.1h43.4c8 0 15.2-4.7 18.4-12l17.8-40.1h79.4l17.8 40.1c3.2 7.3 10.4 12 18.4 12h43.4c14.3 0 23.9-15.1 17.7-28.1L275.6 124.6c-3.6-7.7-11.2-12.6-19.6-12.6zm0 86.5 24.8 55.8h-49.6L256 198.5z" fill="#fff"/>
  </g>
</svg>
